<svg xmlns="http://www.w3.org/2000/svg" viewBox="0 0 1284.62 1176.23"><defs><style>.a{fill:#151717;}</style></defs><title>Asset 1</title><path class="a" d="M159.8,1176.23l-87.92-.08c-48.79,0-83.37-42-68.32-82.88l349.28-1049C362.56,17.88,390.47,0,422,0H500c55.6,0,95.3,47.45,78.87,94.25l-368.29,1049C203.73,1162.86,183.12,1176.24,159.8,1176.23Z"/><path class="a" d="M1250.47,699.38c32.59,18.12,43.8,59,25.11,90.6l-34.19,57c-18.68,31.56-60.89,42.43-93.48,24.31l-142.08-79.23V951c0,36.24-31,66.29-68.38,66.29H869.08c-37.38,0-68.37-30.05-68.37-66.29v-159L658.63,871.28C626,889.4,583.83,878.53,565.14,847L531,790c-18.69-31.56-7.48-72.48,25.11-90.6l142.08-79.75L556.07,539.87c-32.59-18.12-43.8-59-25.11-90.6l34.18-57c18.69-31.56,60.9-42.43,93.49-24.31L800.71,447.2v-159c0-36.24,31-66.28,68.37-66.28h68.37c37.38,0,68.38,30,68.38,66.28v159L1147.91,368c32.59-18.12,74.8-7.25,93.48,24.31l34.19,57c18.69,31.56,7.48,72.48-25.11,90.6l-142.08,79.76Z"/></svg>