<svg xmlns="http://www.w3.org/2000/svg" id="Layer_1" viewBox="0 0 1500 1500">
  <style>
    .st1{fill:#fff}
  </style>
  <path fill="#272625" d="M0 0h1500v1500H0z"/>
  <path d="M1045.3 660.7l-74.8-42.2 74.8-41.6c17.5-10.3 22.9-32 13.3-48.3l-18.1-30.1c-10.3-16.9-32-22.3-48.8-12.6l-74.8 41.6v-83.8c0-18.7-16.3-34.4-36.8-35h-35.6c-19.9 0-36.2 16.3-36.2 35v83.8l-74.8-41.6c-16.9-9.6-39.2-4.2-49.4 12.6l-17.5 30.1c-.5 1-1.1 2-1.5 3.1-.4 1-.9 2.1-1.2 3.2l-.9 3.3c-.2 1.1-.4 2.2-.6 3.4-.1 1.1-.2 2.3-.2 3.4s0 2.3.1 3.4.2 2.3.4 3.4.4 2.2.7 3.4c.3 1.1.7 2.2 1.1 3.3.4 1.1.9 2.1 1.4 3.1.5 1 1.1 2 1.7 3 .6 1 1.3 1.9 2 2.8.7.9 1.4 1.8 2.2 2.6s1.6 1.6 2.5 2.4l2.7 2.1c.9.6 1.9 1.3 2.9 1.8l74.8 42.2-74.8 42.2c-17.5 9-23.5 30.8-13.3 47.6l17.5 30.1c10.3 16.3 32.5 21.7 49.4 12.6l74.8-41.6v83.9c0 18.7 16.3 35 36.2 34.4h36.2c19.9 0 36.2-15.7 36.2-34.4v-83.8l74.8 41.6c1 .5 2.1 1.1 3.1 1.5 1.1.4 2.1.9 3.3 1.2 1.1.3 2.2.6 3.4.9s2.3.4 3.4.6c1.1.1 2.3.2 3.5.2h3.5c1.1-.1 2.3-.2 3.5-.4 1.1-.2 2.3-.4 3.4-.7 1.1-.3 2.2-.6 3.3-1 1.1-.4 2.2-.8 3.2-1.3s2.1-1 3.1-1.6c1-.6 2-1.2 2.9-1.9.9-.7 1.8-1.4 2.7-2.2.9-.8 1.7-1.6 2.5-2.4.8-.8 1.5-1.7 2.2-2.7.7-.9 1.4-1.9 2-2.9l18.1-30.1c10-16.8 4-38.5-13.5-47.6zM650.4 292.4h-41.6c-16.9 0-31.4 8.4-36.2 22.9l-89.9 268.9-94.6 284c-7.9 21.7 10.9 43.4 36.2 43.4h45.8c12.6 0 23.5-7.2 27.1-16.9l109.1-310.5 85-242.4c9.2-24.7-11.9-49.4-40.9-49.4z" class="st1"/>
</svg>
