<svg xmlns="http://www.w3.org/2000/svg" id="Layer_1" viewBox="0 0 1500 813">
  <style>
    .st1{fill:#fff}
  </style>
  <path fill="#272625" d="M0 0h1500v814.2H0z"/>
  <path d="M928.4 435.1L880 407.8l48.4-26.9c11.3-6.6 14.8-20.7 8.6-31.2l-11.7-19.5c-6.6-10.9-20.7-14.5-31.6-8.2l-48.4 26.9v-54.3c0-12.1-10.6-22.3-23.8-22.6h-23c-12.9 0-23.4 10.6-23.4 22.6v54.3L726.6 322c-10.9-6.2-25.4-2.7-32 8.2l-11.3 19.5c-.4.6-.7 1.3-1 2s-.6 1.4-.8 2.1l-.6 2.1c-.2.7-.3 1.4-.4 2.2-.1.7-.1 1.5-.2 2.2 0 .7 0 1.5.1 2.2.1.7.2 1.5.3 2.2.1.7.3 1.4.5 2.2.2.7.4 1.4.7 2.1.3.7.6 1.4.9 2 .3.7.7 1.3 1.1 1.9.4.6.8 1.2 1.3 1.8.4.6.9 1.2 1.4 1.7.5.5 1.1 1.1 1.6 1.5.6.5 1.2.9 1.8 1.4.6.4 1.2.8 1.9 1.2l48.4 27.3-48.4 27.3c-11.3 5.9-15.2 19.9-8.6 30.8l11.3 19.5c6.6 10.6 21.1 14 32 8.2l48.4-26.9V521c0 12.1 10.6 22.6 23.4 22.3h23.4c12.9 0 23.4-10.1 23.4-22.3v-54.3l48.4 26.9c.7.4 1.3.7 2 1 .7.3 1.4.6 2.1.8.7.2 1.4.4 2.2.6s1.5.3 2.2.4c.7.1 1.5.2 2.2.2h2.2c.7-.1 1.5-.1 2.2-.3.7-.1 1.5-.3 2.2-.4.7-.2 1.4-.4 2.1-.7.7-.3 1.4-.5 2.1-.9.7-.3 1.3-.7 2-1.1.6-.4 1.3-.8 1.9-1.2.6-.4 1.2-.9 1.8-1.4.6-.5 1.1-1 1.6-1.6.5-.5 1-1.1 1.4-1.7.4-.6.9-1.2 1.3-1.9l11.7-19.5c6.8-10.9 2.9-24.9-8.4-30.8zM672.8 196.7h-26.9c-10.9 0-20.3 5.5-23.4 14.8l-58.2 174L503 569.4c-5.1 14 7 28.1 23.4 28.1h29.7c8.2 0 15.2-4.7 17.6-10.9l70.6-201 55-156.9c5.9-16-7.8-32-26.5-32z" class="st1"/>
</svg>
